# xmcd
#
# Track frame offsets:
#	150
#	13840
#	34250
#	67225
#	95905
#	109920
#	125740
#	147222
#	167327
#	182982
#	198115
#
# Disc length: 3017
#
# Revision: 7
# Processed by: cddbd v1.5.1PL0 Copyright (c) Steve Scherf et al.
# Submitted via: ExactAudioCopy v0.95a5
# Normalized: r6:DSETVAR1
#
DISCID=a40bc70b
DTITLE=Various Artist - Depression Blues- It Serves Me Right To Suffer
DYEAR=1998
DGENRE=Blues
TTITLE0=Junior Parker - Five Long Years
TTITLE1=T. Bone Walker - Stormy Monday Blues
TTITLE2=J. Allen Blues Review - Ol' Dog
TTITLE3=Buddy Guy - Have You Ever Been Lonesome
TTITLE4=Eric Clapton - Draggin' My Tail
TTITLE5=B. B. King - I've Got a Mind To Give Up Living
TTITLE6=Chicago Blues Band with John Lee Hooker - It Serves Me Right To Suffer
TTITLE7=Muddy Waters - Honey Bee
TTITLE8=Gatemouth Moore - Somebody Got To Go
TTITLE9=Lonnie Johnson - Another Night To Cry
TTITLE10=Harvey Mandell - Long Hard Journey
EXTD=LABEL =Delta Music Inc\nID =17186\nUPC =018111-718622\nCOPYRIGHT =1998
EXTT0=
EXTT1=
EXTT2=
EXTT3=
EXTT4=
EXTT5=
EXTT6=
EXTT7=
EXTT8=
EXTT9=
EXTT10=
PLAYORDER=
